<svg width="15" height="11" viewBox="0 0 15 11" fill="none" xmlns="http://www.w3.org/2000/svg">
<path d="M14.1175 0.889586C14.021 0.790832 13.8891 0.734476 13.751 0.732913C13.6129 0.73135 13.4798 0.784709 13.3811 0.881253L5.24982 9.01354L1.61753 5.38229C1.5193 5.28742 1.38773 5.23492 1.25117 5.23611C1.11461 5.2373 0.983978 5.29207 0.887412 5.38864C0.790845 5.48521 0.73607 5.61584 0.734883 5.7524C0.733696 5.88896 0.786193 6.02052 0.881067 6.11875L4.88107 10.1188C4.92929 10.1673 4.98665 10.2059 5.04985 10.2322C5.11305 10.2586 5.18084 10.2721 5.2493 10.2721C5.31776 10.2721 5.38554 10.2586 5.44874 10.2322C5.51194 10.2059 5.5693 10.1673 5.61753 10.1188L14.1175 1.61875C14.213 1.52139 14.2664 1.3905 14.2664 1.25417C14.2664 1.11784 14.213 0.986945 14.1175 0.889586Z" fill="#030C1B"/>
</svg>
