<svg width="19" height="18" viewBox="0 0 19 18" fill="none" xmlns="http://www.w3.org/2000/svg">
<path d="M2.75 3.375H6.5C6.59946 3.375 6.6953 3.41405 6.76562 3.48438C6.83595 3.5547 6.875 3.65054 6.875 3.75V6.75C6.875 6.84946 6.83595 6.9453 6.76562 7.01562C6.6953 7.08595 6.59946 7.125 6.5 7.125H4.625V7.5C4.625 9.19076 5.29664 10.8123 6.49219 12.0078C7.68773 13.2034 9.30924 13.875 11 13.875H11.375V12C11.375 11.9005 11.414 11.8047 11.4844 11.7344C11.5547 11.664 11.6505 11.625 11.75 11.625H14.75C14.8495 11.625 14.9453 11.664 15.0156 11.7344C15.0859 11.8047 15.125 11.9005 15.125 12V15.75C15.125 15.8495 15.086 15.9453 15.0156 16.0156C14.9453 16.086 14.8495 16.125 14.75 16.125H11C6.23686 16.125 2.375 12.2631 2.375 7.5V3.75C2.375 3.65054 2.41405 3.5547 2.48438 3.48438C2.5547 3.41405 2.65054 3.375 2.75 3.375ZM9.875 1.88477C10.6825 1.92732 11.4778 2.10689 12.2266 2.41699C13.091 2.77506 13.8765 3.3003 14.5381 3.96191C15.1997 4.62353 15.7249 5.40899 16.083 6.27344C16.3931 7.02214 16.5717 7.81756 16.6143 8.625H15.8623C15.8205 7.91594 15.6621 7.21741 15.3896 6.55957C14.9071 5.39502 14.0901 4.39955 13.042 3.69922C12.0979 3.06844 11.004 2.70322 9.875 2.63672V1.88477Z" fill="currentColor" stroke="currentColor" stroke-width="0.75"/>
<path d="M13.6572 7.278C13.8835 7.82393 13.9999 8.40906 14 9H12.65C12.65 8.16457 12.3181 7.36335 11.7274 6.77261C11.1366 6.18187 10.3354 5.85 9.5 5.85V4.5C10.39 4.50005 11.26 4.764 12 5.25848C12.7399 5.75295 13.3167 6.45575 13.6572 7.278Z" fill="currentColor"/>
</svg>
